<?xml version="1.0" encoding="utf-8"?>
<!-- Generator: Adobe Illustrator 25.3.1, SVG Export Plug-In . SVG Version: 6.00 Build 0)  -->
<svg version="1.1" id="Capa_1" xmlns="http://www.w3.org/2000/svg" xmlns:xlink="http://www.w3.org/1999/xlink" x="0px" y="0px"
	 viewBox="0 0 512 512" style="enable-background:new 0 0 512 512;" xml:space="preserve">
<style type="text/css">
	.st0{fill:#0066B2;}
	.st1{fill:#004692;}
	.st2{fill:#CEE8FF;}
	.st3{fill:#AEDAFF;}
	.st4{fill:#4793FF;}
	.st5{fill:#FFDA2D;}
	.st6{fill:#FFAA17;}
	.st7{fill:#FF7900;}
	.st8{fill:#EDF5FF;}
	.st9{fill:#4EC9FF;}
	.st10{fill:#0095FF;}
	.st11{fill:#9BFCFF;}
</style>
<path class="st0" d="M225.8,352.3L207,408.8c-3.5,10.5-16.9,13.8-24.8,5.9l-84.9-84.9c-7.9-7.9-4.7-21.3,5.9-24.8l56.5-18.8
	l43.2,23.2L225.8,352.3z"/>
<path class="st1" d="M225.8,352.3L207,408.8c-3.5,10.5-16.9,13.8-24.8,5.9l-42.4-42.4l63-63l0.1,0.1L225.8,352.3z"/>
<path class="st2" d="M508.1,15.9c-1.1-6-5.9-10.8-11.9-11.9C440.7-6.7,384,4.4,337.3,33.8l53,82.7l87.7,58.1
	C507.5,128,518.7,71.4,508.1,15.9z"/>
<path class="st3" d="M478.1,174.6l-84.6-56L503.9,8.1c2.1,2.1,3.6,4.8,4.2,7.8C518.7,71.4,507.5,128,478.1,174.6L478.1,174.6z"/>
<path class="st4" d="M184.7,98.6l72.5,14.5l-99.1,99.1l-7.9,0.8l-42.4-42.4l-21.2,21.2c-5.9,5.9-15.4,5.9-21.2,0
	c-5.9-5.9-5.9-15.4,0-21.2c7.8-7.8,43.9-44,51.5-51.5C134.7,101.4,160.1,93.7,184.7,98.6L184.7,98.6z"/>
<path class="st4" d="M392.9,394.9c-2.5,2.5-49.3,49.3-51.7,51.7c-5.9,5.9-15.3,5.9-21.2,0c-5.9-5.8-5.9-15.3,0-21.2l21.2-21.2
	l-42.4-42.5l0.2-7.3l100.2-100.3c2,8.2,4.5,26.1,14.3,73.3C418.2,352,410.5,377.2,392.9,394.9L392.9,394.9z"/>
<path class="st5" d="M139.9,372.1c-31.2-31.2-80.7-30.3-112.1,1.2C3,398-0.7,464.9,0.1,497.3c0.2,8,6.6,14.4,14.6,14.6
	c33.3,0.8,99.4-3.1,124-27.7C170,452.8,171.1,403.3,139.9,372.1L139.9,372.1z"/>
<path class="st6" d="M138.7,484.2c-24.6,24.6-90.6,28.5-124,27.7c-4-0.1-7.6-1.8-10.2-4.4l135.4-135.4
	C171.1,403.4,170,452.8,138.7,484.2L138.7,484.2z"/>
<path class="st6" d="M30,481.9c0.8-40.2,8.5-77,19-87.5c19.9-19.9,50.4-20.4,69.7-1.2c19.2,19.2,18.7,49.8-1.2,69.7
	C108.5,472,76,481,30,481.9L30,481.9z"/>
<path class="st7" d="M117.5,463c-8.9,9-41.5,18-87.4,18.9l88.6-88.6C137.9,412.5,137.3,443.1,117.5,463z"/>
<path class="st8" d="M159.6,286.2l17.5-53.4L279,334.7l-53.2,17.6L159.6,286.2z"/>
<path class="st2" d="M279,334.7l-53.2,17.6l-33-33l35.4-35.4L279,334.7z"/>
<path class="st4" d="M23,213.1L4.6,231.5c-5.9,5.9-5.9,15.4,0,21.2c5.9,5.9,15.4,5.9,21.2,0l18.4-18.4c5.9-5.9,5.9-15.4,0-21.2
	S28.8,207.3,23,213.1z"/>
<g>
	<path class="st4" d="M298.8,467.8c-5.9-5.9-15.4-5.9-21.2,0l-18.4,18.4c-5.9,5.9-5.9,15.4,0,21.2c5.9,5.9,15.4,5.9,21.2,0
		l18.4-18.4C304.6,483.2,304.6,473.7,298.8,467.8z"/>
</g>
<path class="st8" d="M298.9,64.5l-95.6,95.6L256,256l95.8,52.6l95.8-95.8c11.7-11.7,21.9-24.5,30.5-38.2
	C437.6,134.2,375.6,72.1,337.3,33.8C323.5,42.5,310.6,52.7,298.9,64.5L298.9,64.5z"/>
<path class="st2" d="M478.1,174.6c-8.6,13.7-18.8,26.5-30.5,38.2l-95.8,95.8L256,256l151.7-151.7C432.8,129.3,458,154.6,478.1,174.6
	z"/>
<path class="st2" d="M150.3,213.1l148.5,148.5l53-53L203.3,160.1L150.3,213.1z"/>
<path class="st3" d="M351.8,308.6l-53,53l-74.2-74.2l53-53L351.8,308.6z"/>
<path class="st9" d="M439.1,72.7c-17.6-17.6-46.1-17.6-63.6,0c-17.5,17.5-17.5,46.1,0,63.7c17.6,17.6,46.1,17.6,63.6,0
	C456.7,118.8,456.7,90.3,439.1,72.7z"/>
<path class="st10" d="M439.1,136.4c-17.6,17.6-46,17.6-63.6,0.1l63.6-63.6C456.7,90.4,456.6,118.9,439.1,136.4L439.1,136.4z"/>
<path class="st11" d="M417.9,115.2c-5.9,5.9-15.3,5.9-21.2,0c-5.9-5.9-5.9-15.4,0-21.2c5.9-5.9,15.3-5.9,21.2,0
	C423.8,99.8,423.8,109.3,417.9,115.2z"/>
<path class="st9" d="M417.9,115.2c-5.8,5.8-15.3,5.9-21.1,0.1L418,94C423.8,99.9,423.7,109.3,417.9,115.2z"/>
</svg>
