<svg xmlns="http://www.w3.org/2000/svg" viewBox="0 0 512 512"><path d="M234.672 64C228.782 64 224 68.773 224 74.664V230.25l-110.016 110c-4.156 4.188-4.156 10.938 0 15.094a10.666 10.666 0 0 0 15.094 0l113.125-113.133a10.594 10.594 0 0 0 3.125-7.547v-160c0-5.891-4.766-10.664-10.656-10.664z"/><path d="M464.094 284.156c3.438-15.945 5.234-32.508 5.234-49.492C469.328 105.062 364.266 0 234.672 0 105.062 0 0 105.062 0 234.664s105.062 234.68 234.672 234.68c16.969 0 33.531-1.812 49.5-5.25C307.625 493.312 343.625 512 384 512c70.688 0 128-57.312 128-128 0-40.375-18.703-76.375-47.906-99.844zM245.312 447.734c-.141-5.766-4.844-10.391-10.641-10.391a10.649 10.649 0 0 0-10.656 10.406c-25.047-1.219-49.344-6.766-72.375-16.5a216.465 216.465 0 0 1-14.312-6.688c2.797-5.062 1.047-11.469-4-14.375a10.645 10.645 0 0 0-14.438 3.703c-12.594-8.141-24.312-17.609-35.078-28.375a214.205 214.205 0 0 1-28.375-35.078c4.953-3 6.625-9.406 3.719-14.438s-9.312-6.797-14.391-4a209.364 209.364 0 0 1-6.672-14.312c-9.75-23.031-15.281-47.32-16.5-72.367C27.359 245.18 32 240.469 32 234.664c0-5.797-4.641-10.516-10.406-10.648 1.219-25.047 6.75-49.352 16.5-72.383a212.386 212.386 0 0 1 6.672-14.297 10.674 10.674 0 0 0 14.391-4c2.906-5.039 1.234-11.453-3.719-14.445a214.148 214.148 0 0 1 28.375-35.07c10.766-10.758 22.484-20.234 35.078-28.383 3 4.953 9.406 6.625 14.438 3.711 5.047-2.906 6.797-9.305 4-14.375a213.913 213.913 0 0 1 14.312-6.688c23.031-9.742 47.328-15.273 72.375-16.492.14 5.773 4.843 10.406 10.656 10.406 5.797 0 10.516-4.633 10.656-10.406 25.031 1.219 49.344 6.75 72.375 16.492A216.059 216.059 0 0 1 332 44.774c-2.797 5.07-1.047 11.469 4 14.375 5.031 2.914 11.453 1.242 14.453-3.711a213.98 213.98 0 0 1 35.062 28.383 213.704 213.704 0 0 1 28.375 35.07c-4.953 2.992-6.625 9.406-3.703 14.445 2.906 5.039 9.297 6.797 14.375 4a220.736 220.736 0 0 1 6.688 14.297c9.734 23.039 15.266 47.336 16.484 72.383-5.766.133-10.406 4.852-10.406 10.648 0 5.805 4.641 10.516 10.406 10.656a212.7 212.7 0 0 1-2.875 26.055C426.766 261.57 406.031 256 384 256c-70.688 0-128 57.312-128 128 0 22.031 5.562 42.766 15.375 60.875a215.437 215.437 0 0 1-26.063 2.859zm214.11 11.688c-20.141 20.141-46.938 31.234-75.422 31.234s-55.281-11.094-75.422-31.234c-20.156-20.141-31.25-46.922-31.25-75.422s11.094-55.281 31.25-75.422c20.141-20.141 46.938-31.234 75.422-31.234s55.281 11.094 75.422 31.234c20.156 20.141 31.25 46.922 31.25 75.422s-11.094 55.281-31.25 75.422z"/><path d="M339.219 414.422c5.297-7.953 16.172-14.188 24.125-19.61 11-7.562 19.219-14.188 19.219-29.172 0-16.828-12.859-28.359-31.547-28.359-20.688 0-33.812 13.375-33.812 34.469v1.969h18.031c.531-13.641 5.312-20.141 15.109-20.141 7.953 0 13.266 5.297 13.266 13.391 0 11.406-11.812 17.359-20.016 22.938-16.703 11.25-28.109 19.344-28.5 40.812h68v-16.297h-43.875zM445.781 393.75v-56.078h-16.969l-40.297 54.359v17.344h39.766v21.344h17.5v-21.344h12.453V393.75h-12.453zm-17.5 0H403.64l24.641-34.469v34.469z"/></svg>