<svg xmlns="http://www.w3.org/2000/svg" width="288" height="288" version="1.0" viewBox="0 0 311 310">
    <g transform="matrix(.1 0 0 -.1 0 310)" fill="#7f0ee0" class="color000 svgShape">
        <path d="M1270 3060 c-251 -53 -426 -190 -543 -425 -60 -121 -78 -195 -84-347 -5 -118 -3 -151 16 -231 51 -222 173 -383 381 -503 l79 -45 3 -397 3
-397 30 -54 c63 -114 171 -174 310 -174 103 0 158 25 241 107 74 75 99 135 99
246 0 88 -22 145 -81 210 -39 43 -115 100 -133 100 -8 0 -11 -62 -11 -191 l0
-191 -28 -28 c-57 -56 -151 -45 -192 22 -20 32 -20 48 -20 789 0 737 1 757 20
781 46 59 144 63 193 8 26 -30 27 -33 27 -159 0 -70 3 -162 6 -203 l7 -74 86
-18 c47 -10 96 -21 109 -23 l22 -5 0 234 c0 210 -2 240 -21 295 -25 75 -84
145 -149 178 -59 30 -167 49 -230 42 -108 -13 -217 -95 -266 -201 -23 -50 -24
-56 -24 -338 0 -219 -3 -288 -12 -288 -7 0 -44 33 -84 73 -121 123 -172 262
-161 435 9 153 72 296 173 398 117 117 266 169 472 162 115 -3 119 -4 207 -47
73 -36 105 -59 170 -125 53 -53 90 -101 109 -139 55 -115 56 -126 56 -487 l0
-336 38 -13 c23 -9 67 -44 115 -93 l77 -79 0 444 0 443 -25 74 c-96 282 -305
487 -581 569 -93 27 -279 28 -404 1z" fill="#7f0ee0" class="color000 svgShape"/>
        <path d="M1582 1539 l3 -110 74 -30 c363 -146 500 -504 325 -850 -69 -139
-199 -243 -356 -285 -76 -20 -213 -28 -286 -15 -202 33 -397 209 -456 410 -13
45 -16 112 -16 387 0 323 -1 333 -20 339 -32 10 -114 76 -163 133 l-47 53 0
-453 1 -453 33 -86 c99 -263 303 -459 557 -539 139 -43 345 -35 518 22 257 85
446 305 516 600 19 82 19 269 0 362 -47 225 -179 401 -396 524 -50 28 -251
102 -278 102 -8 0 -11 -32 -9 -111z" fill="#7f0ee0" class="color000 svgShape"/>
    </g>
</svg>